<?xml version="1.0" encoding="UTF-8" standalone="no"?>
<svg width="121.92mm" height="91.44mm"
 viewBox="0 0 1440 1080"
 xmlns="http://www.w3.org/2000/svg" xmlns:xlink="http://www.w3.org/1999/xlink"  version="1.2" baseProfile="tiny">
<defs>
</defs>
<g fill="none" stroke="black" stroke-width="1" fill-rule="evenodd" stroke-linecap="square" stroke-linejoin="bevel" >

<g fill="#ffffff" fill-opacity="1" stroke="none" transform="matrix(1,0,0,1,0,0)"
font-family="Arial" font-size="12" font-weight="400" font-style="normal" 
>
<rect x="0" y="0" width="1440" height="1080"/>
</g>

<g fill="none" stroke="#000000" stroke-opacity="1" stroke-width="1" stroke-linecap="square" stroke-linejoin="bevel" transform="matrix(1,0,0,1,0,0)"
font-family="Arial" font-size="12" font-weight="400" font-style="normal" 
>
</g>

<g fill="#000000" fill-opacity="1" stroke="#000000" stroke-opacity="1" stroke-width="1" stroke-linecap="butt" stroke-linejoin="miter" stroke-miterlimit="2" transform="matrix(1,0,0,1,0,0)"
font-family="Arial" font-size="12" font-weight="400" font-style="normal" 
>
</g>

<g fill="#000000" fill-opacity="1" stroke="#000000" stroke-opacity="1" stroke-width="5" stroke-linecap="round" stroke-linejoin="bevel" transform="matrix(1,0,0,1,0,0)"
font-family="Arial" font-size="12" font-weight="400" font-style="normal" 
>
<polyline fill="none" vector-effect="none" points="229.738,700.038 229.802,694.82 229.994,689.606 230.314,684.398 230.762,679.2 231.337,674.014 232.039,668.843 232.868,663.692 233.823,658.562 234.904,653.457 236.11,648.381 237.439,643.335 238.893,638.324 240.468,633.35 242.166,628.416 243.984,623.525 245.921,618.68 247.977,613.884 250.15,609.14 252.439,604.451 254.842,599.82 257.358,595.248 259.985,590.74 262.722,586.298 265.568,581.924 268.519,577.622 271.576,573.393 274.735,569.241 277.996,565.167 281.355,561.174 284.812,557.265 288.363,553.443 292.007,549.708 295.741,546.064 299.564,542.513 303.473,539.056 307.466,535.697 311.539,532.437 315.692,529.277 319.921,526.221 324.223,523.269 328.597,520.423 333.039,517.686 337.547,515.059 342.118,512.543 346.75,510.14 351.439,507.851 356.183,505.678 360.979,503.623 365.824,501.685 370.714,499.867 375.648,498.17 380.623,496.594 385.634,495.141 390.679,493.811 395.756,492.605 400.861,491.524 405.99,490.569 411.142,489.74 416.312,489.038 421.498,488.463 426.697,488.015 431.905,487.695 437.119,487.503 442.337,487.439 447.554,487.503 452.768,487.695 457.976,488.015 463.175,488.463 468.361,489.038 473.531,489.74 478.683,490.569 483.813,491.524 488.917,492.605 493.994,493.811 499.039,495.141 504.051,496.594 509.025,498.17 513.959,499.867 518.85,501.685 523.695,503.623 528.49,505.678 533.234,507.851 537.923,510.14 542.555,512.543 547.126,515.059 551.634,517.686 556.076,520.423 560.45,523.269 564.753,526.221 568.981,529.277 573.134,532.437 577.208,535.697 581.2,539.056 585.109,542.513 588.932,546.064 592.666,549.708 596.31,553.443 599.862,557.265 603.318,561.174 606.677,565.167 609.938,569.241 613.097,573.393 616.154,577.622 619.106,581.924 621.951,586.298 624.688,590.74 627.316,595.248 629.832,599.82 632.235,604.451 634.523,609.14 636.696,613.884 638.752,618.68 640.689,623.525 642.507,628.416 644.205,633.35 645.781,638.324 647.234,643.335 648.564,648.381 649.769,653.457 650.85,658.562 651.805,663.692 652.634,668.843 653.336,674.014 653.911,679.2 654.359,684.398 654.679,689.606 654.871,694.82 654.935,700.038 654.871,705.255 654.679,710.47 654.359,715.678 653.911,720.876 653.336,726.062 652.634,731.233 651.805,736.384 650.85,741.514 649.769,746.618 648.564,751.695 647.234,756.741 645.781,761.752 644.205,766.726 642.507,771.66 640.689,776.551 638.752,781.396 636.696,786.192 634.523,790.935 632.235,795.624 629.832,800.256 627.316,804.827 624.688,809.335 621.951,813.777 619.106,818.151 616.154,822.454 613.097,826.683 609.938,830.835 606.677,834.909 603.318,838.901 599.862,842.81 596.31,846.633 592.666,850.368 588.932,854.012 585.109,857.563 581.2,861.019 577.208,864.379 573.134,867.639 568.981,870.798 564.753,873.855 560.45,876.807 556.076,879.652 551.634,882.39 547.126,885.017 542.555,887.533 537.923,889.936 533.234,892.225 528.49,894.397 523.695,896.453 518.85,898.391 513.959,900.209 509.025,901.906 504.051,903.482 499.039,904.935 493.994,906.265 488.917,907.471 483.813,908.551 478.683,909.506 473.531,910.335 468.361,911.037 463.175,911.613 457.976,912.06 452.768,912.38 447.554,912.572 442.337,912.636 437.119,912.572 431.905,912.38 426.697,912.06 421.498,911.613 416.312,911.037 411.142,910.335 405.99,909.506 400.861,908.551 395.756,907.471 390.679,906.265 385.634,904.935 380.623,903.482 375.648,901.906 370.714,900.209 365.824,898.391 360.979,896.453 356.183,894.397 351.439,892.225 346.75,889.936 342.118,887.533 337.547,885.017 333.039,882.39 328.597,879.652 324.223,876.807 319.921,873.855 315.692,870.798 311.539,867.639 307.466,864.379 303.473,861.019 299.564,857.563 295.741,854.012 292.007,850.368 288.363,846.633 284.812,842.81 281.355,838.901 277.996,834.909 274.735,830.835 271.576,826.683 268.519,822.454 265.568,818.151 262.722,813.777 259.985,809.335 257.358,804.827 254.842,800.256 252.439,795.624 250.15,790.935 247.977,786.192 245.921,781.396 243.984,776.551 242.166,771.66 240.468,766.726 238.893,761.752 237.439,756.741 236.11,751.695 234.904,746.618 233.823,741.514 232.868,736.384 232.039,731.233 231.337,726.062 230.762,720.876 230.314,715.678 229.994,710.47 229.802,705.255 229.738,700.038 " />
<polyline fill="none" vector-effect="none" points="340.762,700.038 340.792,697.545 340.884,695.054 341.037,692.566 341.251,690.082 341.526,687.604 341.861,685.134 342.257,682.672 342.714,680.222 343.23,677.783 343.806,675.357 344.441,672.947 345.136,670.552 345.889,668.176 346.7,665.818 347.568,663.482 348.494,661.167 349.476,658.876 350.514,656.609 351.608,654.369 352.756,652.156 353.958,649.972 355.213,647.818 356.521,645.696 357.88,643.606 359.291,641.55 360.751,639.53 362.261,637.546 363.818,635.599 365.423,633.692 367.075,631.824 368.771,629.998 370.512,628.214 372.297,626.473 374.123,624.776 375.991,623.124 377.898,621.519 379.845,619.962 381.829,618.452 383.849,616.992 385.905,615.581 387.994,614.222 390.117,612.914 392.271,611.659 394.455,610.457 396.667,609.309 398.908,608.215 401.174,607.177 403.466,606.195 405.78,605.269 408.117,604.401 410.475,603.59 412.851,602.837 415.245,602.142 417.656,601.507 420.082,600.931 422.52,600.415 424.971,599.958 427.433,599.562 429.903,599.227 432.381,598.952 434.864,598.738 437.353,598.585 439.844,598.494 442.337,598.463 444.829,598.494 447.321,598.585 449.809,598.738 452.293,598.952 454.771,599.227 457.241,599.562 459.702,599.958 462.153,600.415 464.592,600.931 467.017,601.507 469.428,602.142 471.822,602.837 474.199,603.59 476.556,604.401 478.893,605.269 481.208,606.195 483.499,607.177 485.765,608.215 488.006,609.309 490.219,610.457 492.403,611.659 494.557,612.914 496.679,614.222 498.769,615.581 500.824,616.992 502.845,618.452 504.829,619.962 506.775,621.519 508.683,623.124 510.55,624.776 512.377,626.473 514.161,628.214 515.902,629.998 517.599,631.824 519.25,633.692 520.855,635.599 522.413,637.546 523.922,639.53 525.383,641.55 526.793,643.606 528.153,645.696 529.46,647.818 530.716,649.972 531.918,652.156 533.066,654.369 534.159,656.609 535.197,658.876 536.18,661.167 537.105,663.482 537.974,665.818 538.785,668.176 539.538,670.552 540.232,672.947 540.867,675.357 541.443,677.783 541.96,680.222 542.416,682.672 542.812,685.134 543.148,687.604 543.422,690.082 543.636,692.566 543.789,695.054 543.881,697.545 543.911,700.038 543.881,702.531 543.789,705.022 543.636,707.51 543.422,709.994 543.148,712.472 542.812,714.942 542.416,717.403 541.96,719.854 541.443,722.293 540.867,724.719 540.232,727.129 539.538,729.523 538.785,731.9 537.974,734.257 537.105,736.594 536.18,738.909 535.197,741.2 534.159,743.467 533.066,745.707 531.918,747.92 530.716,750.104 529.46,752.258 528.153,754.38 526.793,756.47 525.383,758.525 523.922,760.546 522.413,762.53 520.855,764.476 519.25,766.384 517.599,768.251 515.902,770.078 514.161,771.862 512.377,773.603 510.55,775.3 508.683,776.951 506.775,778.556 504.829,780.114 502.845,781.623 500.824,783.084 498.769,784.494 496.679,785.854 494.557,787.161 492.403,788.417 490.219,789.619 488.006,790.767 485.765,791.86 483.499,792.899 481.208,793.881 478.893,794.806 476.556,795.675 474.199,796.486 471.822,797.239 469.428,797.933 467.017,798.569 464.592,799.145 462.153,799.661 459.702,800.117 457.241,800.513 454.771,800.849 452.293,801.124 449.809,801.337 447.321,801.49 444.829,801.582 442.337,801.613 439.844,801.582 437.353,801.49 434.864,801.337 432.381,801.124 429.903,800.849 427.433,800.513 424.971,800.117 422.52,799.661 420.082,799.145 417.656,798.569 415.245,797.933 412.851,797.239 410.475,796.486 408.117,795.675 405.78,794.806 403.466,793.881 401.174,792.899 398.908,791.86 396.667,790.767 394.455,789.619 392.271,788.417 390.117,787.161 387.994,785.854 385.905,784.494 383.849,783.084 381.829,781.623 379.845,780.114 377.898,778.556 375.991,776.951 374.123,775.3 372.297,773.603 370.512,771.862 368.771,770.078 367.075,768.251 365.423,766.384 363.818,764.476 362.261,762.53 360.751,760.546 359.291,758.525 357.88,756.47 356.521,754.38 355.213,752.258 353.958,750.104 352.756,747.92 351.608,745.707 350.514,743.467 349.476,741.2 348.494,738.909 347.568,736.594 346.7,734.257 345.889,731.9 345.136,729.523 344.441,727.129 343.806,724.719 343.23,722.293 342.714,719.854 342.257,717.403 341.861,714.942 341.526,712.472 341.251,709.994 341.037,707.51 340.884,705.022 340.792,702.531 340.762,700.038 " />
<polyline fill="none" vector-effect="none" points="1051.41,912.636 1051.41,487.439 " />
<polyline fill="none" vector-effect="none" points="1089.21,912.636 1089.21,487.439 " />
<polyline fill="none" vector-effect="none" points="1089.21,487.439 1051.41,487.439 " />
<polyline fill="none" vector-effect="none" points="1051.41,912.636 1089.21,912.636 " />
</g>

<g fill="#000000" fill-opacity="1" stroke="#000000" stroke-opacity="1" stroke-width="2" stroke-linecap="round" stroke-linejoin="bevel" transform="matrix(1,0,0,1,0,0)"
font-family="Arial" font-size="12" font-weight="400" font-style="normal" 
>
<polyline fill="none" vector-effect="none" points="1089.21,468.689 1089.21,107.396 " />
<polyline fill="none" vector-effect="none" points="1051.41,468.689 1051.41,107.396 " />
<polyline fill="none" vector-effect="none" points="1051.41,131.396 943.411,131.396 " />
<polyline fill="none" vector-effect="none" points="1143.21,131.396 1197.21,131.396 " />
<polyline fill="none" vector-effect="none" points="997.411,131.396 943.411,131.396 " />
</g>

<g fill="#000000" fill-opacity="1" stroke="#000000" stroke-opacity="1" stroke-width="3" stroke-linecap="round" stroke-linejoin="bevel" transform="matrix(1,0,0,1,0,0)"
font-family="Arial" font-size="12" font-weight="400" font-style="normal" 
>
</g>

<g fill="#000000" fill-opacity="1" stroke="none" transform="matrix(1,0,0,1,0,0)"
font-family="Arial" font-size="12" font-weight="400" font-style="normal" 
>
<path vector-effect="none" fill-rule="evenodd" d="M1143.21,140.396 L1089.21,131.396 L1143.21,122.396 L1143.21,140.396"/>
</g>

<g fill="#000000" fill-opacity="1" stroke="#000000" stroke-opacity="1" stroke-width="3" stroke-linecap="round" stroke-linejoin="bevel" transform="matrix(1,0,0,1,0,0)"
font-family="Arial" font-size="12" font-weight="400" font-style="normal" 
>
</g>

<g fill="#000000" fill-opacity="1" stroke="none" transform="matrix(1,0,0,1,0,0)"
font-family="Arial" font-size="12" font-weight="400" font-style="normal" 
>
<path vector-effect="none" fill-rule="evenodd" d="M997.411,122.396 L1051.41,131.396 L997.411,140.396 L997.411,122.396"/>
</g>

<g fill="#000000" fill-opacity="1" stroke="#000000" stroke-opacity="1" stroke-width="3" stroke-linecap="round" stroke-linejoin="bevel" transform="matrix(1,0,0,1,0,0)"
font-family="Arial" font-size="12" font-weight="400" font-style="normal" 
>
</g>

<g fill="#000000" fill-opacity="1" stroke="#000000" stroke-opacity="1" stroke-width="1" stroke-linecap="round" stroke-linejoin="bevel" transform="matrix(1,0,0,1,0,0)"
font-family="Arial" font-size="12" font-weight="400" font-style="normal" 
>
</g>

<g fill="#000000" fill-opacity="1" stroke="none" transform="matrix(1,0,0,1,0,0)"
font-family="Arial" font-size="12" font-weight="400" font-style="normal" 
>
<path vector-effect="none" fill-rule="evenodd" d="M520.852,149.04 L520.852,117.16 L531.986,117.16 L531.986,113.187 L505.108,113.187 L505.108,117.16 L516.315,117.16 L516.315,149.04 L520.852,149.04"/>
</g>

<g fill="#000000" fill-opacity="1" stroke="#000000" stroke-opacity="1" stroke-width="1" stroke-linecap="round" stroke-linejoin="bevel" transform="matrix(1,0,0,1,0,0)"
font-family="Arial" font-size="12" font-weight="400" font-style="normal" 
>
</g>

<g fill="#000000" fill-opacity="1" stroke="none" transform="matrix(1,0,0,1,0,0)"
font-family="Arial" font-size="12" font-weight="400" font-style="normal" 
>
<path vector-effect="none" fill-rule="evenodd" d="M564.847,149.04 L564.847,113.187 L560.335,113.187 L560.335,128.343 L541.942,128.343 L541.942,113.187 L537.43,113.187 L537.43,149.04 L541.942,149.04 L541.942,132.316 L560.335,132.316 L560.335,149.04 L564.847,149.04"/>
</g>

<g fill="#000000" fill-opacity="1" stroke="#000000" stroke-opacity="1" stroke-width="1" stroke-linecap="round" stroke-linejoin="bevel" transform="matrix(1,0,0,1,0,0)"
font-family="Arial" font-size="12" font-weight="400" font-style="normal" 
>
</g>

<g fill="#000000" fill-opacity="1" stroke="none" transform="matrix(1,0,0,1,0,0)"
font-family="Arial" font-size="12" font-weight="400" font-style="normal" 
>
<path vector-effect="none" fill-rule="evenodd" d="M584.735,149.04 L584.735,146.441 L580.517,145.484 L580.517,116.792 L584.735,115.787 L584.735,113.187 L571.787,113.187 L571.787,115.787 L576.005,116.792 L576.005,145.484 L571.787,146.441 L571.787,149.04 L584.735,149.04"/>
</g>

<g fill="#000000" fill-opacity="1" stroke="#000000" stroke-opacity="1" stroke-width="1" stroke-linecap="round" stroke-linejoin="bevel" transform="matrix(1,0,0,1,0,0)"
font-family="Arial" font-size="12" font-weight="400" font-style="normal" 
>
</g>

<g fill="#000000" fill-opacity="1" stroke="none" transform="matrix(1,0,0,1,0,0)"
font-family="Arial" font-size="12" font-weight="400" font-style="normal" 
>
<path vector-effect="none" fill-rule="evenodd" d="M607.027,116.645 L608.979,116.768 L610.987,117.136 L613.05,117.749 L615.168,118.607 L616.983,114.781 L614.782,113.859 L612.397,113.2 L609.828,112.804 L607.076,112.672 L604.513,112.813 L602.122,113.236 L599.903,113.942 L597.855,114.929 L596.01,116.179 L594.397,117.675 L593.036,119.392 L591.896,121.354 L591.005,123.524 L590.369,125.866 L589.988,128.38 L589.86,131.065 L589.926,133.211 L590.124,135.234 L590.454,137.134 L590.915,138.912 L591.52,140.554 L592.258,142.07 L593.127,143.46 L594.127,144.724 L595.252,145.851 L596.494,146.827 L597.852,147.653 L599.326,148.329 L600.905,148.855 L602.6,149.23 L604.412,149.456 L606.34,149.531 L608.927,149.451 L611.196,149.212 L613.347,148.783 L615.585,148.084 L615.585,144.16 L613.254,144.782 L611.042,145.227 L608.95,145.494 L606.978,145.583 L604.176,145.35 L601.705,144.651 L600.608,144.125 L599.596,143.48 L598.67,142.715 L597.83,141.83 L596.414,139.746 L595.403,137.269 L594.814,134.394 L594.618,131.114 L594.82,127.932 L595.427,125.106 L596.469,122.635 L597.929,120.52 L598.79,119.613 L599.731,118.828 L600.752,118.166 L601.852,117.626 L603.031,117.197 L604.286,116.89 L605.618,116.707 L607.027,116.645"/>
</g>

<g fill="#000000" fill-opacity="1" stroke="#000000" stroke-opacity="1" stroke-width="1" stroke-linecap="round" stroke-linejoin="bevel" transform="matrix(1,0,0,1,0,0)"
font-family="Arial" font-size="12" font-weight="400" font-style="normal" 
>
</g>

<g fill="#000000" fill-opacity="1" stroke="none" transform="matrix(1,0,0,1,0,0)"
font-family="Arial" font-size="12" font-weight="400" font-style="normal" 
>
<path vector-effect="none" fill-rule="evenodd" d="M649.623,149.04 L634.86,128.809 L649.059,113.187 L643.787,113.187 L631.01,127.46 L627.92,130.869 L627.92,113.187 L623.408,113.187 L623.408,149.04 L627.92,149.04 L627.92,135.136 L631.574,131.923 L644.302,149.04 L649.623,149.04"/>
</g>

<g fill="#000000" fill-opacity="1" stroke="#000000" stroke-opacity="1" stroke-width="1" stroke-linecap="round" stroke-linejoin="bevel" transform="matrix(1,0,0,1,0,0)"
font-family="Arial" font-size="12" font-weight="400" font-style="normal" 
>
</g>

<g fill="#000000" fill-opacity="1" stroke="none" transform="matrix(1,0,0,1,0,0)"
font-family="Arial" font-size="12" font-weight="400" font-style="normal" 
>
<path vector-effect="none" fill-rule="evenodd" d="M682.926,149.04 L682.926,113.187 L678.708,113.187 L678.708,133.419 L678.717,134.354 L678.745,135.54 L678.791,136.978 L678.855,138.667 L678.922,140.281 L678.978,141.518 L679.02,142.378 L679.051,142.86 L678.855,142.86 L672.602,133.125 L660.83,114.929 L659.727,113.187 L654.503,113.187 L654.503,149.04 L658.672,149.04 L658.672,129.005 L658.654,127.288 L658.599,125.424 L658.507,123.414 L658.378,121.256 L658.255,119.269 L658.452,119.269 L677.653,149.04 L682.926,149.04"/>
</g>

<g fill="#000000" fill-opacity="1" stroke="#000000" stroke-opacity="1" stroke-width="1" stroke-linecap="round" stroke-linejoin="bevel" transform="matrix(1,0,0,1,0,0)"
font-family="Arial" font-size="12" font-weight="400" font-style="normal" 
>
</g>

<g fill="#000000" fill-opacity="1" stroke="none" transform="matrix(1,0,0,1,0,0)"
font-family="Arial" font-size="12" font-weight="400" font-style="normal" 
>
<path vector-effect="none" fill-rule="evenodd" d="M712.697,149.04 L712.697,145.068 L697.174,145.068 L697.174,132.266 L711.79,132.266 L711.79,128.343 L697.174,128.343 L697.174,117.16 L712.697,117.16 L712.697,113.187 L692.661,113.187 L692.661,149.04 L712.697,149.04"/>
</g>

<g fill="#000000" fill-opacity="1" stroke="#000000" stroke-opacity="1" stroke-width="1" stroke-linecap="round" stroke-linejoin="bevel" transform="matrix(1,0,0,1,0,0)"
font-family="Arial" font-size="12" font-weight="400" font-style="normal" 
>
</g>

<g fill="#000000" fill-opacity="1" stroke="none" transform="matrix(1,0,0,1,0,0)"
font-family="Arial" font-size="12" font-weight="400" font-style="normal" 
>
<path vector-effect="none" fill-rule="evenodd" d="M740.923,139.452 L740.865,138.246 L740.69,137.128 L740.399,136.1 L739.991,135.16 L738.802,133.456 L737.097,131.972 L735.989,131.269 L734.627,130.556 L733.01,129.834 L731.138,129.103 L729.581,128.507 L728.245,127.944 L727.129,127.415 L726.234,126.92 L724.897,125.915 L723.978,124.811 L723.463,123.487 L723.291,121.869 L723.401,120.71 L723.732,119.686 L724.29,118.779 L725.081,118.019 L726.074,117.418 L727.239,116.989 L728.576,116.731 L730.084,116.645 L732.11,116.765 L734.216,117.123 L736.402,117.721 L738.667,118.558 L740.065,114.683 L737.755,113.804 L735.338,113.175 L732.814,112.798 L730.182,112.672 L727.73,112.832 L725.523,113.31 L723.567,114.076 L721.869,115.149 L720.495,116.504 L719.514,118.068 L718.926,119.839 L718.73,121.82 L718.858,123.689 L719.245,125.375 L719.919,126.877 L720.863,128.196 L722.108,129.382 L723.708,130.489 L725.664,131.515 L727.975,132.463 L729.616,133.083 L731.034,133.67 L732.228,134.224 L733.198,134.743 L734.688,135.786 L735.675,136.901 L736.215,138.226 L736.411,139.844 L736.282,141.125 L735.896,142.272 L735.258,143.253 L734.375,144.087 L733.223,144.773 L731.825,145.264 L730.2,145.54 L728.318,145.632 L725.872,145.491 L723.242,145.068 L720.649,144.399 L718.264,143.523 L718.264,147.839 L720.186,148.579 L722.469,149.108 L725.115,149.425 L728.122,149.531 L730.973,149.365 L733.493,148.869 L735.681,148.016 L737.539,146.833 L739.016,145.362 L740.065,143.645 L740.708,141.677 L740.923,139.452"/>
</g>

<g fill="#000000" fill-opacity="1" stroke="#000000" stroke-opacity="1" stroke-width="1" stroke-linecap="round" stroke-linejoin="bevel" transform="matrix(1,0,0,1,0,0)"
font-family="Arial" font-size="12" font-weight="400" font-style="normal" 
>
</g>

<g fill="#000000" fill-opacity="1" stroke="none" transform="matrix(1,0,0,1,0,0)"
font-family="Arial" font-size="12" font-weight="400" font-style="normal" 
>
<path vector-effect="none" fill-rule="evenodd" d="M768.487,139.452 L768.429,138.246 L768.254,137.128 L767.963,136.1 L767.555,135.16 L766.366,133.456 L764.661,131.972 L763.553,131.269 L762.191,130.556 L760.574,129.834 L758.702,129.103 L757.145,128.507 L755.809,127.944 L754.693,127.415 L753.798,126.92 L752.461,125.915 L751.542,124.811 L751.027,123.487 L750.855,121.869 L750.965,120.71 L751.296,119.686 L751.854,118.779 L752.645,118.019 L753.638,117.418 L754.803,116.989 L756.14,116.731 L757.648,116.645 L759.674,116.765 L761.78,117.123 L763.966,117.721 L766.231,118.558 L767.629,114.683 L765.319,113.804 L762.902,113.175 L760.378,112.798 L757.746,112.672 L755.294,112.832 L753.087,113.31 L751.131,114.076 L749.433,115.149 L748.059,116.504 L747.078,118.068 L746.49,119.839 L746.294,121.82 L746.422,123.689 L746.809,125.375 L747.483,126.877 L748.427,128.196 L749.672,129.382 L751.272,130.489 L753.228,131.515 L755.539,132.463 L757.18,133.083 L758.598,133.67 L759.792,134.224 L760.762,134.743 L762.252,135.786 L763.239,136.901 L763.779,138.226 L763.975,139.844 L763.846,141.125 L763.46,142.272 L762.822,143.253 L761.939,144.087 L760.787,144.773 L759.389,145.264 L757.764,145.54 L755.882,145.632 L753.436,145.491 L750.806,145.068 L748.213,144.399 L745.828,143.523 L745.828,147.839 L747.75,148.579 L750.033,149.108 L752.679,149.425 L755.686,149.531 L758.537,149.365 L761.057,148.869 L763.245,148.016 L765.103,146.833 L766.58,145.362 L767.629,143.645 L768.273,141.677 L768.487,139.452"/>
</g>

<g fill="#000000" fill-opacity="1" stroke="#000000" stroke-opacity="1" stroke-width="1" stroke-linecap="round" stroke-linejoin="bevel" transform="matrix(1,0,0,1,0,0)"
font-family="Arial" font-size="12" font-weight="400" font-style="normal" 
>
</g>

<g fill="#000000" fill-opacity="1" stroke="none" transform="matrix(1,0,0,1,0,0)"
font-family="Arial" font-size="12" font-weight="400" font-style="normal" 
>
<path vector-effect="none" fill-rule="evenodd" d="M817.19,149.04 L817.19,113.187 L812.972,113.187 L812.972,133.419 L812.981,134.354 L813.009,135.54 L813.055,136.978 L813.119,138.667 L813.187,140.281 L813.242,141.518 L813.285,142.378 L813.315,142.86 L813.119,142.86 L806.866,133.125 L795.095,114.929 L793.991,113.187 L788.768,113.187 L788.768,149.04 L792.937,149.04 L792.937,129.005 L792.918,127.288 L792.863,125.424 L792.771,123.414 L792.642,121.256 L792.52,119.269 L792.716,119.269 L811.918,149.04 L817.19,149.04"/>
</g>

<g fill="#000000" fill-opacity="1" stroke="#000000" stroke-opacity="1" stroke-width="1" stroke-linecap="round" stroke-linejoin="bevel" transform="matrix(1,0,0,1,0,0)"
font-family="Arial" font-size="12" font-weight="400" font-style="normal" 
>
</g>

<g fill="#000000" fill-opacity="1" stroke="none" transform="matrix(1,0,0,1,0,0)"
font-family="Arial" font-size="12" font-weight="400" font-style="normal" 
>
<path vector-effect="none" fill-rule="evenodd" d="M858.217,131.065 L858.148,128.965 L857.941,126.982 L857.597,125.115 L857.114,123.365 L856.507,121.731 L855.765,120.213 L854.888,118.812 L853.877,117.528 L852.732,116.379 L851.48,115.382 L850.12,114.539 L848.653,113.85 L847.09,113.313 L845.416,112.93 L843.632,112.7 L841.738,112.623 L839.785,112.7 L837.949,112.93 L836.229,113.313 L834.626,113.85 L833.15,114.525 L831.788,115.352 L830.538,116.328 L829.403,117.454 L828.391,118.719 L827.514,120.109 L826.773,121.625 L826.166,123.266 L825.704,125.02 L825.375,126.896 L825.177,128.895 L825.111,131.016 L825.179,133.162 L825.381,135.185 L825.718,137.085 L826.19,138.863 L826.797,140.506 L827.539,142.027 L828.416,143.424 L829.427,144.7 L830.563,145.837 L831.812,146.821 L833.175,147.652 L834.651,148.329 L836.24,148.855 L837.943,149.23 L839.759,149.456 L841.689,149.531 L843.585,149.454 L845.373,149.224 L847.055,148.841 L848.629,148.305 L850.096,147.613 L851.455,146.766 L852.707,145.762 L853.852,144.602 L854.875,143.317 L855.759,141.916 L856.505,140.399 L857.114,138.765 L857.597,137.015 L857.941,135.148 L858.148,133.165 L858.217,131.065 M829.869,131.065 L830.053,127.742 L830.604,124.836 L831.555,122.353 L832.885,120.299 L833.677,119.436 L834.559,118.687 L835.529,118.051 L836.588,117.528 L837.747,117.12 L838.991,116.829 L840.322,116.654 L841.738,116.596 L843.129,116.654 L844.435,116.829 L845.655,117.12 L846.79,117.528 L848.8,118.662 L850.468,120.25 L851.158,121.214 L851.755,122.292 L852.261,123.483 L852.675,124.787 L853.008,126.191 L853.245,127.705 L853.388,129.33 L853.435,131.065 L853.388,132.812 L853.245,134.449 L853.008,135.976 L852.675,137.392 L852.26,138.698 L851.749,139.893 L851.144,140.978 L850.444,141.953 L849.651,142.816 L848.77,143.566 L847.8,144.202 L846.741,144.724 L844.386,145.405 L841.689,145.632 L840.285,145.573 L838.967,145.399 L837.734,145.107 L836.588,144.7 L835.529,144.176 L834.559,143.535 L833.677,142.778 L832.885,141.904 L831.555,139.832 L830.604,137.343 L830.053,134.412 L829.869,131.065"/>
</g>

<g fill="#000000" fill-opacity="1" stroke="#000000" stroke-opacity="1" stroke-width="1" stroke-linecap="round" stroke-linejoin="bevel" transform="matrix(1,0,0,1,0,0)"
font-family="Arial" font-size="12" font-weight="400" font-style="normal" 
>
</g>

<g fill="#000000" fill-opacity="1" stroke="none" transform="matrix(1,0,0,1,0,0)"
font-family="Arial" font-size="12" font-weight="400" font-style="normal" 
>
<path vector-effect="none" fill-rule="evenodd" d="M881.956,149.04 L885.659,149.04 L897.626,117.651 L897.822,117.651 L897.672,120.359 L897.565,122.819 L897.5,125.031 L897.479,126.994 L897.479,149.04 L901.942,149.04 L901.942,113.187 L895.321,113.187 L884.065,142.566 L883.869,142.566 L872.809,113.187 L866.138,113.187 L866.138,149.04 L870.307,149.04 L870.307,127.288 L870.284,124.522 L870.215,121.985 L870.1,119.678 L869.939,117.602 L870.136,117.602 L881.956,149.04"/>
</g>

<g fill="#000000" fill-opacity="1" stroke="#000000" stroke-opacity="1" stroke-width="1" stroke-linecap="round" stroke-linejoin="bevel" transform="matrix(1,0,0,1,0,0)"
font-family="Arial" font-size="12" font-weight="400" font-style="normal" 
>
</g>

<g fill="#000000" fill-opacity="1" stroke="none" transform="matrix(1,0,0,1,0,0)"
font-family="Arial" font-size="12" font-weight="400" font-style="normal" 
>
<path vector-effect="none" fill-rule="evenodd" d="M910.427,146.318 L910.623,147.765 L910.875,148.354 L911.236,148.844 L911.672,149.249 L912.193,149.531 L913.493,149.751 L914.817,149.531 L915.362,149.249 L915.822,148.844 L916.435,147.765 L916.656,146.318 L916.601,145.558 L916.435,144.896 L915.822,143.841 L914.817,143.179 L913.493,142.959 L912.168,143.179 L911.212,143.841 L910.623,144.896 L910.427,146.318"/>
</g>

<g fill="#000000" fill-opacity="1" stroke="#000000" stroke-opacity="1" stroke-width="1" stroke-linecap="round" stroke-linejoin="bevel" transform="matrix(1,0,0,1,0,0)"
font-family="Arial" font-size="12" font-weight="400" font-style="normal" 
>
</g>

<g fill="#000000" fill-opacity="1" stroke="#000000" stroke-opacity="1" stroke-width="2" stroke-linecap="round" stroke-linejoin="bevel" transform="matrix(1,0,0,1,0,0)"
font-family="Arial" font-size="12" font-weight="400" font-style="normal" 
>
<polyline fill="none" vector-effect="none" points="656.551,453.641 602.551,453.641 " />
<polyline fill="none" vector-effect="none" points="602.551,453.641 527.144,569.611 " />
</g>

<g fill="#000000" fill-opacity="1" stroke="none" transform="matrix(1,0,0,1,0,0)"
font-family="Arial" font-size="12" font-weight="400" font-style="normal" 
>
<path vector-effect="none" fill-rule="evenodd" d="M716.902,452.893 L716.827,450.735 L716.602,448.699 L716.226,446.787 L715.701,444.996 L715.039,443.327 L714.229,441.778 L713.273,440.348 L712.169,439.037 L714.72,435.457 L711.679,433.397 L709.349,436.708 L707.32,435.72 L705.156,435.015 L702.857,434.592 L700.423,434.451 L698.47,434.528 L696.634,434.758 L694.914,435.141 L693.311,435.678 L691.835,436.353 L690.472,437.18 L689.223,438.156 L688.088,439.282 L687.076,440.547 L686.199,441.937 L685.457,443.453 L684.851,445.094 L684.389,446.848 L684.06,448.724 L683.862,450.723 L683.796,452.844 L683.865,455.034 L684.072,457.092 L684.417,459.019 L684.9,460.814 L685.52,462.478 L686.279,464.014 L687.176,465.421 L688.21,466.699 L685.611,470.427 L688.676,472.413 L691.079,469.005 L693.004,470.035 L695.199,470.77 L697.658,471.212 L700.374,471.359 L702.27,471.282 L704.058,471.052 L705.74,470.669 L707.314,470.133 L708.781,469.441 L710.14,468.594 L711.392,467.59 L712.537,466.43 L713.559,465.145 L714.444,463.744 L715.19,462.227 L715.799,460.593 L716.282,458.843 L716.626,456.976 L716.833,454.993 L716.902,452.893 M712.12,452.893 L712.073,454.64 L711.93,456.277 L711.693,457.804 L711.36,459.22 L710.945,460.526 L710.434,461.721 L709.829,462.806 L709.128,463.781 L708.336,464.644 L707.455,465.394 L706.485,466.03 L705.425,466.552 L703.071,467.233 L700.374,467.46 L698.4,467.343 L696.597,466.994 L694.96,466.387 L693.483,465.547 L709.57,442.74 L710.686,444.757 L711.483,447.13 L711.961,449.834 L712.12,452.893 M688.554,452.893 L688.737,449.57 L689.289,446.664 L690.239,444.181 L691.57,442.127 L692.362,441.264 L693.244,440.515 L694.214,439.879 L695.273,439.356 L696.432,438.948 L697.676,438.657 L699.007,438.482 L700.423,438.424 L702.268,438.535 L703.979,438.866 L705.53,439.417 L706.946,440.19 L690.932,462.825 L689.884,460.863 L689.142,458.558 L688.701,455.903 L688.554,452.893"/>
</g>

<g fill="#000000" fill-opacity="1" stroke="#000000" stroke-opacity="1" stroke-width="1" stroke-linecap="round" stroke-linejoin="bevel" transform="matrix(1,0,0,1,0,0)"
font-family="Arial" font-size="12" font-weight="400" font-style="normal" 
>
</g>

<g fill="#000000" fill-opacity="1" stroke="none" transform="matrix(1,0,0,1,0,0)"
font-family="Arial" font-size="12" font-weight="400" font-style="normal" 
>
<path vector-effect="none" fill-rule="evenodd" d="M734.902,470.868 L734.902,468.269 L730.684,467.312 L730.684,438.62 L734.902,437.615 L734.902,435.015 L721.954,435.015 L721.954,437.615 L726.172,438.62 L726.172,467.312 L721.954,468.269 L721.954,470.868 L734.902,470.868"/>
</g>

<g fill="#000000" fill-opacity="1" stroke="#000000" stroke-opacity="1" stroke-width="1" stroke-linecap="round" stroke-linejoin="bevel" transform="matrix(1,0,0,1,0,0)"
font-family="Arial" font-size="12" font-weight="400" font-style="normal" 
>
</g>

<g fill="#000000" fill-opacity="1" stroke="none" transform="matrix(1,0,0,1,0,0)"
font-family="Arial" font-size="12" font-weight="400" font-style="normal" 
>
<path vector-effect="none" fill-rule="evenodd" d="M770.559,452.599 L770.485,450.562 L770.265,448.644 L769.897,446.846 L769.382,445.168 L768.732,443.608 L767.935,442.164 L766.991,440.837 L765.9,439.626 L764.676,438.545 L763.337,437.609 L761.881,436.816 L760.308,436.168 L758.621,435.664 L756.82,435.304 L754.906,435.087 L752.878,435.015 L741.842,435.015 L741.842,470.868 L751.823,470.868 L754.015,470.796 L756.078,470.58 L758.012,470.22 L759.818,469.716 L761.482,469.054 L763.018,468.244 L764.425,467.288 L765.703,466.184 L766.841,464.943 L767.825,463.573 L768.655,462.074 L769.333,460.446 L769.869,458.677 L770.252,456.78 L770.482,454.754 L770.559,452.599 M765.801,452.746 L765.743,454.479 L765.568,456.099 L765.277,457.606 L764.87,458.999 L764.359,460.279 L763.735,461.445 L762.998,462.498 L762.148,463.438 L761.182,464.276 L760.1,465.001 L758.901,465.613 L757.586,466.111 L756.168,466.497 L754.637,466.773 L752.993,466.938 L751.235,466.994 L746.355,466.994 L746.355,438.866 L752.24,438.866 L753.889,438.921 L755.428,439.086 L756.857,439.362 L758.175,439.748 L759.396,440.245 L760.511,440.852 L761.518,441.569 L762.417,442.397 L763.21,443.33 L763.895,444.365 L764.473,445.501 L764.943,446.738 L765.319,448.088 L765.587,449.539 L765.748,451.092 L765.801,452.746"/>
</g>

<g fill="#000000" fill-opacity="1" stroke="#000000" stroke-opacity="1" stroke-width="1" stroke-linecap="round" stroke-linejoin="bevel" transform="matrix(1,0,0,1,0,0)"
font-family="Arial" font-size="12" font-weight="400" font-style="normal" 
>
</g>

<g fill="#000000" fill-opacity="1" stroke="none" transform="matrix(1,0,0,1,0,0)"
font-family="Arial" font-size="12" font-weight="400" font-style="normal" 
>
<path vector-effect="none" fill-rule="evenodd" d="M807.368,470.868 L811.071,470.868 L823.039,439.479 L823.235,439.479 L823.085,442.187 L822.977,444.647 L822.913,446.859 L822.891,448.822 L822.891,470.868 L827.355,470.868 L827.355,435.015 L820.733,435.015 L809.477,464.394 L809.281,464.394 L798.221,435.015 L791.551,435.015 L791.551,470.868 L795.72,470.868 L795.72,449.116 L795.697,446.35 L795.628,443.813 L795.513,441.506 L795.352,439.43 L795.548,439.43 L807.368,470.868"/>
</g>

<g fill="#000000" fill-opacity="1" stroke="#000000" stroke-opacity="1" stroke-width="1" stroke-linecap="round" stroke-linejoin="bevel" transform="matrix(1,0,0,1,0,0)"
font-family="Arial" font-size="12" font-weight="400" font-style="normal" 
>
</g>

<g fill="#000000" fill-opacity="1" stroke="none" transform="matrix(1,0,0,1,0,0)"
font-family="Arial" font-size="12" font-weight="400" font-style="normal" 
>
<path vector-effect="none" fill-rule="evenodd" d="M847.194,470.868 L847.194,468.269 L842.976,467.312 L842.976,438.62 L847.194,437.615 L847.194,435.015 L834.246,435.015 L834.246,437.615 L838.464,438.62 L838.464,467.312 L834.246,468.269 L834.246,470.868 L847.194,470.868"/>
</g>

<g fill="#000000" fill-opacity="1" stroke="#000000" stroke-opacity="1" stroke-width="1" stroke-linecap="round" stroke-linejoin="bevel" transform="matrix(1,0,0,1,0,0)"
font-family="Arial" font-size="12" font-weight="400" font-style="normal" 
>
</g>

<g fill="#000000" fill-opacity="1" stroke="none" transform="matrix(1,0,0,1,0,0)"
font-family="Arial" font-size="12" font-weight="400" font-style="normal" 
>
<path vector-effect="none" fill-rule="evenodd" d="M882.556,470.868 L882.556,435.015 L878.338,435.015 L878.338,455.247 L878.347,456.182 L878.375,457.368 L878.421,458.806 L878.485,460.495 L878.553,462.109 L878.608,463.346 L878.651,464.206 L878.682,464.688 L878.485,464.688 L872.232,454.953 L860.461,436.757 L859.357,435.015 L854.134,435.015 L854.134,470.868 L858.303,470.868 L858.303,450.833 L858.284,449.116 L858.229,447.253 L858.137,445.242 L858.009,443.084 L857.886,441.097 L858.082,441.097 L877.284,470.868 L882.556,470.868"/>
</g>

<g fill="#000000" fill-opacity="1" stroke="#000000" stroke-opacity="1" stroke-width="1" stroke-linecap="round" stroke-linejoin="bevel" transform="matrix(1,0,0,1,0,0)"
font-family="Arial" font-size="12" font-weight="400" font-style="normal" 
>
</g>

<g fill="#000000" fill-opacity="1" stroke="none" transform="matrix(1,0,0,1,0,0)"
font-family="Arial" font-size="12" font-weight="400" font-style="normal" 
>
<path vector-effect="none" fill-rule="evenodd" d="M891.017,468.146 L891.213,469.593 L891.464,470.182 L891.826,470.672 L892.261,471.077 L892.782,471.359 L894.082,471.579 L895.406,471.359 L895.952,471.077 L896.412,470.672 L897.025,469.593 L897.246,468.146 L897.19,467.386 L897.025,466.724 L896.412,465.669 L895.406,465.007 L894.082,464.787 L892.758,465.007 L891.801,465.669 L891.213,466.724 L891.017,468.146"/>
</g>

<g fill="#000000" fill-opacity="1" stroke="#000000" stroke-opacity="1" stroke-width="1" stroke-linecap="round" stroke-linejoin="bevel" transform="matrix(1,0,0,1,0,0)"
font-family="Arial" font-size="12" font-weight="400" font-style="normal" 
>
</g>

<g fill="#000000" fill-opacity="1" stroke="#000000" stroke-opacity="1" stroke-width="3" stroke-linecap="round" stroke-linejoin="bevel" transform="matrix(1,0,0,1,0,0)"
font-family="Arial" font-size="12" font-weight="400" font-style="normal" 
>
</g>

<g fill="#000000" fill-opacity="1" stroke="none" transform="matrix(1,0,0,1,0,0)"
font-family="Arial" font-size="12" font-weight="400" font-style="normal" 
>
<path vector-effect="none" fill-rule="evenodd" d="M534.689,574.517 L497.707,614.882 L519.599,564.705 L534.689,574.517"/>
</g>

<g fill="#000000" fill-opacity="1" stroke="#000000" stroke-opacity="1" stroke-width="3" stroke-linecap="round" stroke-linejoin="bevel" transform="matrix(1,0,0,1,0,0)"
font-family="Arial" font-size="12" font-weight="400" font-style="normal" 
>
</g>

<g fill="#000000" fill-opacity="1" stroke="#000000" stroke-opacity="1" stroke-width="2" stroke-linecap="round" stroke-linejoin="bevel" transform="matrix(1,0,0,1,0,0)"
font-family="Arial" font-size="12" font-weight="400" font-style="normal" 
>
<polyline fill="none" vector-effect="none" points="612.839,339.895 558.839,339.895 " />
<polyline fill="none" vector-effect="none" points="558.839,339.895 524.392,446.381 " />
</g>

<g fill="#000000" fill-opacity="1" stroke="none" transform="matrix(1,0,0,1,0,0)"
font-family="Arial" font-size="12" font-weight="400" font-style="normal" 
>
<path vector-effect="none" fill-rule="evenodd" d="M673.191,339.148 L673.116,336.989 L672.89,334.954 L672.515,333.041 L671.989,331.251 L671.327,329.582 L670.518,328.032 L669.561,326.602 L668.458,325.292 L671.008,321.712 L667.967,319.652 L665.638,322.962 L663.608,321.975 L661.444,321.27 L659.145,320.847 L656.711,320.706 L654.759,320.783 L652.922,321.013 L651.203,321.396 L649.6,321.932 L648.124,322.608 L646.761,323.434 L645.512,324.411 L644.376,325.537 L643.365,326.802 L642.488,328.192 L641.746,329.708 L641.139,331.349 L640.678,333.103 L640.348,334.979 L640.151,336.977 L640.085,339.098 L640.154,341.289 L640.36,343.347 L640.705,345.274 L641.188,347.068 L641.809,348.733 L642.568,350.269 L643.464,351.676 L644.499,352.954 L641.899,356.682 L644.965,358.668 L647.368,355.259 L649.293,356.289 L651.488,357.025 L653.946,357.466 L656.662,357.613 L658.558,357.537 L660.347,357.307 L662.028,356.924 L663.602,356.387 L665.069,355.696 L666.429,354.848 L667.681,353.845 L668.826,352.684 L669.848,351.4 L670.732,349.999 L671.479,348.482 L672.087,346.848 L672.57,345.097 L672.915,343.231 L673.122,341.247 L673.191,339.148 M668.409,339.148 L668.361,340.895 L668.219,342.532 L667.981,344.058 L667.649,345.474 L667.233,346.78 L666.723,347.976 L666.117,349.061 L665.417,350.036 L664.625,350.899 L663.743,351.648 L662.773,352.284 L661.714,352.807 L659.36,353.487 L656.662,353.714 L654.688,353.598 L652.886,353.248 L651.249,352.641 L649.771,351.801 L665.858,328.995 L666.974,331.012 L667.771,333.385 L668.249,336.088 L668.409,339.148 M644.842,339.148 L645.026,335.825 L645.578,332.919 L646.528,330.436 L647.858,328.382 L648.651,327.519 L649.532,326.769 L650.502,326.133 L651.561,325.611 L652.72,325.203 L653.965,324.912 L655.295,324.737 L656.711,324.679 L658.557,324.789 L660.267,325.12 L661.818,325.672 L663.234,326.445 L647.221,349.079 L646.172,347.118 L645.431,344.812 L644.989,342.158 L644.842,339.148"/>
</g>

<g fill="#000000" fill-opacity="1" stroke="none" transform="matrix(1,0,0,1,0,0)"
font-family="Arial" font-size="12" font-weight="400" font-style="normal" 
>
<path vector-effect="none" fill-rule="evenodd" d="M712.403,339.148 L712.334,337.048 L712.128,335.064 L711.783,333.198 L711.3,331.447 L710.693,329.813 L709.951,328.296 L709.074,326.895 L708.063,325.611 L706.918,324.461 L705.666,323.465 L704.306,322.622 L702.839,321.932 L701.276,321.396 L699.602,321.013 L697.818,320.783 L695.924,320.706 L693.971,320.783 L692.135,321.013 L690.415,321.396 L688.812,321.932 L687.336,322.608 L685.974,323.434 L684.724,324.411 L683.589,325.537 L682.577,326.802 L681.7,328.192 L680.959,329.708 L680.352,331.349 L679.89,333.103 L679.561,334.979 L679.363,336.977 L679.297,339.098 L679.365,341.244 L679.567,343.267 L679.904,345.168 L680.376,346.946 L680.983,348.589 L681.725,350.109 L682.602,351.507 L683.613,352.782 L684.749,353.92 L685.998,354.904 L687.361,355.734 L688.837,356.412 L690.426,356.938 L692.129,357.313 L693.945,357.538 L695.875,357.613 L697.771,357.537 L699.559,357.307 L701.241,356.924 L702.815,356.387 L704.282,355.696 L705.641,354.848 L706.893,353.845 L708.038,352.684 L709.061,351.4 L709.945,349.999 L710.691,348.482 L711.3,346.848 L711.783,345.097 L712.128,343.231 L712.334,341.247 L712.403,339.148 M684.055,339.148 L684.239,335.825 L684.79,332.919 L685.741,330.436 L687.071,328.382 L687.863,327.519 L688.745,326.769 L689.715,326.133 L690.774,325.611 L691.933,325.203 L693.177,324.912 L694.508,324.737 L695.924,324.679 L697.316,324.737 L698.621,324.912 L699.841,325.203 L700.976,325.611 L702.987,326.745 L704.654,328.333 L705.344,329.297 L705.942,330.374 L706.447,331.565 L706.861,332.87 L707.194,334.274 L707.431,335.788 L707.574,337.413 L707.621,339.148 L707.574,340.895 L707.431,342.532 L707.194,344.058 L706.861,345.474 L706.446,346.78 L705.935,347.976 L705.33,349.061 L704.63,350.036 L703.837,350.899 L702.956,351.648 L701.986,352.284 L700.927,352.807 L698.572,353.487 L695.875,353.714 L694.471,353.656 L693.153,353.481 L691.92,353.19 L690.774,352.782 L689.715,352.258 L688.745,351.618 L687.863,350.86 L687.071,349.987 L685.741,347.915 L684.79,345.425 L684.239,342.495 L684.055,339.148"/>
</g>

<g fill="#000000" fill-opacity="1" stroke="none" transform="matrix(1,0,0,1,0,0)"
font-family="Arial" font-size="12" font-weight="400" font-style="normal" 
>
<path vector-effect="none" fill-rule="evenodd" d="M749.041,338.853 L748.967,336.816 L748.747,334.899 L748.379,333.101 L747.864,331.423 L747.214,329.862 L746.417,328.419 L745.473,327.091 L744.382,325.88 L743.159,324.8 L741.819,323.863 L740.363,323.071 L738.79,322.423 L737.103,321.918 L735.302,321.558 L733.388,321.342 L731.36,321.27 L720.324,321.27 L720.324,357.123 L730.305,357.123 L732.497,357.051 L734.56,356.835 L736.494,356.475 L738.3,355.97 L739.964,355.308 L741.5,354.499 L742.907,353.543 L744.185,352.439 L745.323,351.198 L746.307,349.827 L747.137,348.328 L747.815,346.701 L748.351,344.932 L748.734,343.034 L748.964,341.008 L749.041,338.853 M744.284,339 L744.225,340.734 L744.051,342.354 L743.759,343.861 L743.352,345.254 L742.841,346.534 L742.217,347.7 L741.48,348.753 L740.63,349.692 L739.664,350.531 L738.582,351.256 L737.383,351.867 L736.068,352.366 L734.651,352.752 L733.119,353.028 L731.475,353.193 L729.717,353.248 L724.837,353.248 L724.837,325.12 L730.722,325.12 L732.371,325.175 L733.91,325.341 L735.339,325.617 L736.657,326.003 L737.878,326.5 L738.993,327.107 L740,327.824 L740.899,328.652 L741.692,329.585 L742.377,330.62 L742.955,331.755 L743.425,332.992 L743.801,334.343 L744.069,335.794 L744.23,337.347 L744.284,339"/>
</g>

<g fill="#000000" fill-opacity="1" stroke="#000000" stroke-opacity="1" stroke-width="1" stroke-linecap="round" stroke-linejoin="bevel" transform="matrix(1,0,0,1,0,0)"
font-family="Arial" font-size="12" font-weight="400" font-style="normal" 
>
</g>

<g fill="#000000" fill-opacity="1" stroke="none" transform="matrix(1,0,0,1,0,0)"
font-family="Arial" font-size="12" font-weight="400" font-style="normal" 
>
<path vector-effect="none" fill-rule="evenodd" d="M785.85,357.123 L789.553,357.123 L801.521,325.733 L801.717,325.733 L801.567,328.442 L801.459,330.902 L801.395,333.113 L801.373,335.077 L801.373,357.123 L805.837,357.123 L805.837,321.27 L799.215,321.27 L787.959,350.649 L787.763,350.649 L776.703,321.27 L770.033,321.27 L770.033,357.123 L774.202,357.123 L774.202,335.371 L774.179,332.604 L774.11,330.068 L773.995,327.761 L773.834,325.684 L774.03,325.684 L785.85,357.123"/>
</g>

<g fill="#000000" fill-opacity="1" stroke="#000000" stroke-opacity="1" stroke-width="1" stroke-linecap="round" stroke-linejoin="bevel" transform="matrix(1,0,0,1,0,0)"
font-family="Arial" font-size="12" font-weight="400" font-style="normal" 
>
</g>

<g fill="#000000" fill-opacity="1" stroke="none" transform="matrix(1,0,0,1,0,0)"
font-family="Arial" font-size="12" font-weight="400" font-style="normal" 
>
<path vector-effect="none" fill-rule="evenodd" d="M838.085,357.123 L842.769,357.123 L828.79,321.123 L824.719,321.123 L810.717,357.123 L815.278,357.123 L819.545,346.014 L833.769,346.014 L838.085,357.123 M832.42,342.017 L821.066,342.017 L825.136,331.153 L825.927,328.596 L826.681,325.782 L828.398,331.153 L832.42,342.017"/>
</g>

<g fill="#000000" fill-opacity="1" stroke="#000000" stroke-opacity="1" stroke-width="1" stroke-linecap="round" stroke-linejoin="bevel" transform="matrix(1,0,0,1,0,0)"
font-family="Arial" font-size="12" font-weight="400" font-style="normal" 
>
</g>

<g fill="#000000" fill-opacity="1" stroke="none" transform="matrix(1,0,0,1,0,0)"
font-family="Arial" font-size="12" font-weight="400" font-style="normal" 
>
<path vector-effect="none" fill-rule="evenodd" d="M872.049,357.123 L860.106,338.338 L871.191,321.27 L866.433,321.27 L857.581,335.322 L848.801,321.27 L843.774,321.27 L854.932,338.436 L843.014,357.123 L847.796,357.123 L857.433,341.551 L866.924,357.123 L872.049,357.123"/>
</g>

<g fill="#000000" fill-opacity="1" stroke="#000000" stroke-opacity="1" stroke-width="1" stroke-linecap="round" stroke-linejoin="bevel" transform="matrix(1,0,0,1,0,0)"
font-family="Arial" font-size="12" font-weight="400" font-style="normal" 
>
</g>

<g fill="#000000" fill-opacity="1" stroke="none" transform="matrix(1,0,0,1,0,0)"
font-family="Arial" font-size="12" font-weight="400" font-style="normal" 
>
<path vector-effect="none" fill-rule="evenodd" d="M875.85,354.401 L876.046,355.848 L876.298,356.436 L876.66,356.927 L877.095,357.331 L877.616,357.613 L878.916,357.834 L880.24,357.613 L880.786,357.331 L881.245,356.927 L881.858,355.848 L882.079,354.401 L882.024,353.641 L881.858,352.979 L881.245,351.924 L880.24,351.262 L878.916,351.041 L877.591,351.262 L876.635,351.924 L876.046,352.979 L875.85,354.401"/>
</g>

<g fill="#000000" fill-opacity="1" stroke="#000000" stroke-opacity="1" stroke-width="1" stroke-linecap="round" stroke-linejoin="bevel" transform="matrix(1,0,0,1,0,0)"
font-family="Arial" font-size="12" font-weight="400" font-style="normal" 
>
</g>

<g fill="#000000" fill-opacity="1" stroke="#000000" stroke-opacity="1" stroke-width="3" stroke-linecap="round" stroke-linejoin="bevel" transform="matrix(1,0,0,1,0,0)"
font-family="Arial" font-size="12" font-weight="400" font-style="normal" 
>
</g>

<g fill="#000000" fill-opacity="1" stroke="none" transform="matrix(1,0,0,1,0,0)"
font-family="Arial" font-size="12" font-weight="400" font-style="normal" 
>
<path vector-effect="none" fill-rule="evenodd" d="M532.955,449.151 L507.772,497.76 L515.829,443.611 L532.955,449.151"/>
</g>

<g fill="#000000" fill-opacity="1" stroke="#000000" stroke-opacity="1" stroke-width="3" stroke-linecap="round" stroke-linejoin="bevel" transform="matrix(1,0,0,1,0,0)"
font-family="Arial" font-size="12" font-weight="400" font-style="normal" 
>
</g>

<g fill="none" stroke="#000000" stroke-opacity="1" stroke-width="1" stroke-linecap="square" stroke-linejoin="bevel" transform="matrix(1,0,0,1,0,0)"
font-family="Arial" font-size="12" font-weight="400" font-style="normal" 
>
</g>
</g>
</svg>
